<?xml version="1.0" encoding="UTF-8"?>
<!DOCTYPE svg PUBLIC "-//W3C//DTD SVG 1.1//EN" "http://www.w3.org/Graphics/SVG/1.1/DTD/svg11.dtd">
<!-- Creator: CorelDRAW -->
<svg xmlns="http://www.w3.org/2000/svg" xml:space="preserve" width="2048px" height="2048px" style="shape-rendering:geometricPrecision; text-rendering:geometricPrecision; image-rendering:optimizeQuality; fill-rule:evenodd; clip-rule:evenodd"
viewBox="0 0 2048 2048"
 xmlns:xlink="http://www.w3.org/1999/xlink">
 <defs>
  <style type="text/css">
   <![CDATA[
    .fil1 {fill:none}
    .fil0 {fill:#212121;fill-rule:nonzero}
   ]]>
  </style>
 </defs>
 <g id="Layer_x0020_1">
  <metadata id="CorelCorpID_0Corel-Layer"/>
  <path class="fil0" d="M1021.54 273.522c70.3772,0 134.1,28.5307 180.225,74.6564 46.1244,46.1244 74.6564,109.846 74.6564,180.226 0,70.3772 -28.5295,134.1 -74.6552,180.226 -46.1256,46.1244 -109.846,74.6552 -180.226,74.6552 -70.3796,0 -134.101,-28.5319 -180.226,-74.6564 -46.1256,-46.1244 -74.6564,-109.847 -74.6564,-180.225 0,-70.3796 28.5319,-134.101 74.6564,-180.226 46.1244,-46.1244 109.846,-74.6564 180.226,-74.6564zm134.974 119.907c-34.539,-34.5402 -82.2615,-55.9052 -134.974,-55.9052 -52.7138,0 -100.435,21.365 -134.975,55.9052 -34.5402,34.5402 -55.9052,82.2615 -55.9052,134.975 0,52.7126 21.365,100.435 55.9052,134.974 34.5402,34.5402 82.2615,55.9052 134.975,55.9052 52.7138,0 100.435,-21.365 134.975,-55.904 34.539,-34.539 55.904,-82.2627 55.904,-134.975 0,-52.7138 -21.365,-100.435 -55.9052,-134.975z"/>
  <path class="fil0" d="M943.553 788.18l165.605 0c47.3847,0 90.4406,19.363 121.634,50.5559 31.1929,31.1941 50.5559,74.2501 50.5559,121.635l0 782.105c0,17.6728 -14.328,32.0008 -32.0008,32.0008l-445.983 0c-17.6728,0 -32.0008,-14.328 -32.0008,-32.0008l0 -782.105c0,-47.3847 19.363,-90.4418 50.5559,-121.635 31.1929,-31.1929 74.2501,-50.5559 121.635,-50.5559zm165.605 64.0016l-165.605 0c-29.7189,0 -56.7615,12.1819 -76.3843,31.8047 -19.6228,19.6228 -31.8047,46.6654 -31.8047,76.3843l0 750.105 381.982 0 0 -750.105c0,-29.7189 -12.1807,-56.7603 -31.8047,-76.3843 -19.6228,-19.6228 -46.6642,-31.8047 -76.3831,-31.8047z"/>
  <path class="fil0" d="M1600.56 704.782c51.9083,0 98.908,21.0449 132.927,55.0642 34.0193,34.0193 55.0642,81.019 55.0642,132.926 0,51.9071 -21.0449,98.9068 -55.0642,132.926 -34.0193,34.0193 -81.019,55.0642 -132.927,55.0642 -51.9071,0 -98.9068,-21.0449 -132.926,-55.0642 -34.0193,-34.0193 -55.0642,-81.019 -55.0642,-132.926 0,-51.9071 21.0449,-98.9068 55.0642,-132.926 34.0193,-34.0193 81.019,-55.0642 132.926,-55.0642zm87.6768 100.315c-22.4351,-22.4351 -53.4343,-36.313 -87.6768,-36.313 -34.2414,0 -65.2406,13.878 -87.6757,36.313 -22.4351,22.4351 -36.313,53.4343 -36.313,87.6757 0,34.2414 13.878,65.2406 36.313,87.6757 22.4351,22.4351 53.4343,36.313 87.6757,36.313 34.2425,0 65.2418,-13.878 87.6768,-36.313 22.4351,-22.4351 36.313,-53.4343 36.313,-87.6757 0,-34.2414 -13.878,-65.2406 -36.313,-87.6757z"/>
  <path class="fil0" d="M1545.98 1064.98l115.903 0c35.8146,0 68.3528,14.6291 91.9205,38.1969 23.5677,23.5666 38.1969,56.1036 38.1969,91.9194l0 547.38c0,17.6728 -14.328,32.0008 -32.0008,32.0008l-312.135 0c-17.6728,0 -32.0008,-14.328 -32.0008,-32.0008l0 -547.38c0,-35.8158 14.6291,-68.3528 38.1969,-91.9194 23.5666,-23.5677 56.1036,-38.1969 91.9194,-38.1969zm115.903 64.0016l-115.903 0c-18.1488,0 -34.6725,7.44804 -46.6689,19.4457 -11.9976,11.9965 -19.4457,28.5201 -19.4457,46.6689l0 515.379 248.133 0 0 -515.379c0,-18.1488 -7.44804,-34.6725 -19.4457,-46.6689 -11.9976,-11.9976 -28.5213,-19.4457 -46.6701,-19.4457z"/>
  <path class="fil0" d="M443.989 704.782c51.9071,0 98.9056,21.0425 132.926,55.0642 34.0193,34.0193 55.0642,81.0178 55.0642,132.926 0,51.9071 -21.0449,98.9068 -55.0642,132.926 -34.0205,34.0217 -81.019,55.0642 -132.926,55.0642 -51.9071,0 -98.9068,-21.0449 -132.926,-55.0642 -34.0193,-34.0193 -55.0642,-81.019 -55.0642,-132.926 0,-51.9071 21.0449,-98.9068 55.0642,-132.926 34.0193,-34.0193 81.019,-55.0642 132.926,-55.0642zm87.6757 100.315c-22.4351,-22.4362 -53.4343,-36.313 -87.6757,-36.313 -34.2414,0 -65.2406,13.878 -87.6757,36.313 -22.4351,22.4351 -36.313,53.4343 -36.313,87.6757 0,34.2414 13.878,65.2406 36.313,87.6757 22.4351,22.4351 53.4343,36.313 87.6757,36.313 34.2414,0 65.2406,-13.8768 87.6757,-36.313 22.4351,-22.4351 36.313,-53.4343 36.313,-87.6757 0,-34.2425 -13.878,-65.2406 -36.313,-87.6757z"/>
  <path class="fil0" d="M389.41 1064.98l115.903 0c35.8158,0 68.3528,14.6291 91.9194,38.1969 23.5677,23.5666 38.1969,56.1036 38.1969,91.9194l0 547.38c0,17.6728 -14.328,32.0008 -32.0008,32.0008l-312.134 0c-17.6728,0 -32.0008,-14.328 -32.0008,-32.0008l0 -547.38c0,-35.8158 14.6291,-68.3528 38.1969,-91.9194 23.5666,-23.5677 56.1036,-38.1969 91.9194,-38.1969zm115.903 64.0016l-115.903 0c-18.1488,0 -34.6725,7.44804 -46.6689,19.4457 -11.9976,11.9965 -19.4457,28.5201 -19.4457,46.6689l0 515.379 248.132 0 0 -515.379c0,-18.1488 -7.44804,-34.6725 -19.4457,-46.6689 -11.9965,-11.9976 -28.5201,-19.4457 -46.6689,-19.4457z"/>
 </g>
 <rect class="fil1" width="2048" height="2048"/>
</svg>
