<?xml version="1.0" encoding="UTF-8"?>
<!DOCTYPE svg PUBLIC "-//W3C//DTD SVG 1.1//EN" "http://www.w3.org/Graphics/SVG/1.1/DTD/svg11.dtd">
<!-- Creator: CorelDRAW -->
<svg xmlns="http://www.w3.org/2000/svg" xml:space="preserve" width="2048px" height="2048px" style="shape-rendering:geometricPrecision; text-rendering:geometricPrecision; image-rendering:optimizeQuality; fill-rule:evenodd; clip-rule:evenodd"
viewBox="0 0 2048 2048"
 xmlns:xlink="http://www.w3.org/1999/xlink">
 <defs>
  <style type="text/css">
   <![CDATA[
    .fil1 {fill:none}
    .fil0 {fill:#212121;fill-rule:nonzero}
   ]]>
  </style>
 </defs>
 <g id="Layer_x0020_1">
  <metadata id="CorelCorpID_0Corel-Layer"/>
  <g id="_557074856">
   <path id="_557075600" class="fil0" d="M544 255.999l960.002 0c79.2331,0 151.241,32.3918 203.425,84.5753 52.1835,52.1835 84.5753,124.192 84.5753,203.425l0 1216c0,17.6728 -14.328,32.0008 -32.0008,32.0008l-1472 0c-17.6728,0 -32.0008,-14.328 -32.0008,-32.0008l0 -1216c0,-79.2331 32.3918,-151.241 84.5753,-203.425 52.1835,-52.1835 124.192,-84.5753 203.425,-84.5753zm960.002 64.0016l-960.002 0c-61.5674,0 -117.561,25.2106 -158.175,65.8241 -40.6134,40.6134 -65.8241,96.6072 -65.8241,158.175l0 1184 1408 0 0 -1184c0,-61.5674 -25.2106,-117.561 -65.8241,-158.175 -40.6134,-40.6134 -96.6072,-65.8241 -158.175,-65.8241z"/>
   <path id="_557075360" class="fil0" d="M806.068 1135.62l0 -575.619c0,-17.6728 14.328,-32.0008 32.0008,-32.0008 6.89646,0 13.2827,2.1815 18.5079,5.89252l497.231 286.485 -15.8752 27.6248 15.9756 -27.7276c15.313,8.82284 20.5748,28.3902 11.752,43.7032 -3.45709,6 -8.56418,10.4575 -14.4177,13.128l-497.268 286.505 0.0696851 0.120473c-15.313,8.82284 -34.8803,3.56103 -43.7032,-11.752 -2.97402,-5.16142 -4.34528,-10.8059 -4.27323,-16.3595zm64.0016 -520.409l0 465.584 404.041 -232.792 -404.041 -232.792z"/>
   <path id="_557074640" class="fil0" d="M288 1312c-17.6728,0 -32.0008,14.328 -32.0008,32.0008 0,17.6728 14.328,32.0008 32.0008,32.0008l1472 0c17.6728,0 32.0008,-14.328 32.0008,-32.0008 0,-17.6728 -14.328,-32.0008 -32.0008,-32.0008l-1472 0z"/>
   <path id="_557075288" class="fil0" d="M496 1504c-17.6728,0 -32.0008,14.328 -32.0008,32.0008 0,17.6728 14.328,32.0008 32.0008,32.0008l144.001 0c17.6728,0 32.0008,-14.328 32.0008,-32.0008 0,-17.6728 -14.328,-32.0008 -32.0008,-32.0008l-144.001 0zm304.001 0c-17.6728,0 -32.0008,14.328 -32.0008,32.0008 0,17.6728 14.328,32.0008 32.0008,32.0008l752 0c17.6728,0 32.0008,-14.328 32.0008,-32.0008 0,-17.6728 -14.328,-32.0008 -32.0008,-32.0008l-752 0z"/>
   <path id="_557075144" class="fil0" d="M720.001 1424c30.9248,0 58.9252,12.5374 79.193,32.8075 20.2701,20.2677 32.8075,48.2681 32.8075,79.193 0,30.9236 -12.5374,58.9241 -32.8075,79.1942 -20.2689,20.2689 -48.2693,32.8063 -79.193,32.8063 -30.9236,0 -58.9241,-12.5374 -79.1942,-32.8063 -20.2689,-20.2701 -32.8063,-48.2705 -32.8063,-79.1942 0,-30.9236 12.5374,-58.9241 32.8063,-79.193 20.2701,-20.2701 48.2705,-32.8075 79.1942,-32.8075zm33.9425 78.0579c-8.68347,-8.68347 -20.6858,-14.0563 -33.9425,-14.0563 -13.2579,0 -25.2591,5.37166 -33.9437,14.0563 -8.68229,8.68229 -14.0551,20.6847 -14.0551,33.9425 0,13.2579 5.37166,25.2603 14.0551,33.9437 8.68347,8.68347 20.6858,14.0551 33.9437,14.0551 13.2579,0 25.2603,-5.37284 33.9425,-14.0551 8.68465,-8.68465 14.0563,-20.6858 14.0563,-33.9437 0,-13.2567 -5.37284,-25.2591 -14.0563,-33.9425z"/>
  </g>
 </g>
 <rect class="fil1" width="2048" height="2048"/>
</svg>
