<?xml version="1.0" encoding="UTF-8"?>
<!DOCTYPE svg PUBLIC "-//W3C//DTD SVG 1.1//EN" "http://www.w3.org/Graphics/SVG/1.1/DTD/svg11.dtd">
<!-- Creator: CorelDRAW -->
<svg xmlns="http://www.w3.org/2000/svg" xml:space="preserve" width="2048px" height="2048px" style="shape-rendering:geometricPrecision; text-rendering:geometricPrecision; image-rendering:optimizeQuality; fill-rule:evenodd; clip-rule:evenodd"
viewBox="0 0 2048 2048"
 xmlns:xlink="http://www.w3.org/1999/xlink">
 <defs>
  <style type="text/css">
   <![CDATA[
    .fil1 {fill:none}
    .fil0 {fill:#424242;fill-rule:nonzero}
   ]]>
  </style>
 </defs>
 <g id="Layer_x0020_1">
  <metadata id="CorelCorpID_0Corel-Layer"/>
  <path class="fil0" d="M1571.22 1327.06c-132.418,110.082 -314.681,180.751 -517.719,187.107l-435.326 275.117 -47.0103 -42.6189 143.255 -285.249c-129.174,-46.6855 -240.474,-122.671 -320.941,-217.412 -86.4261,-101.76 -137.479,-225.095 -137.479,-357.271 0,-174.676 86.9776,-332.426 227.569,-446.24 138.726,-112.305 329.847,-181.782 540.433,-181.782 210.586,0 401.706,69.4772 540.432,181.782 140.591,113.813 227.569,271.564 227.569,446.24 0,170.922 -83.9753,326.596 -220.781,440.327z"/>
  <g id="_244790544">
   <rect id="_244790880" class="fil1" width="2048" height="2048"/>
   <rect id="_244788216" class="fil1" x="255.999" y="255.999" width="1536" height="1536"/>
  </g>
 </g>
</svg>
